# xmcd CD database file
#
# Track frame offsets:
#	150
#	19228
#	31625
#	51593
#	72972
#	86299
#	101554
#	123397
#	140701
#	150458
#	168191
#	187383
#	197915
#	214974
#
# Disc length: 3104 seconds
#
# Revision: 4
# Processed by: cddbd v1.5.2PL0 Copyright (c) Steve Scherf et al.
# Submitted via: CDex 1.70beta2
#
DISCID=c90c1e0e
DTITLE=Mike Strasser - Rash Behaviors
DYEAR=2008
DGENRE=Country
TTITLE0=Coffee
TTITLE1=Dust Devils
TTITLE2=Dreamtime Train
TTITLE3=The Man in the George Jones Song
TTITLE4=Lovin' You Madly
TTITLE5=Springlike
TTITLE6=Senseless
TTITLE7=A Hero's Father
TTITLE8=You Will Awaken
TTITLE9=A Man Around the House
TTITLE10=The Harmony Short Line
TTITLE11=Only You
TTITLE12=Lie To Me
TTITLE13=Join the Majority
EXTD=YEAR: 2008
EXTT0=
EXTT1=
EXTT2=
EXTT3=
EXTT4=
EXTT5=
EXTT6=
EXTT7=
EXTT8=
EXTT9=
EXTT10=
EXTT11=
EXTT12=
EXTT13=
PLAYORDER=
